<?xml version="1.0" standalone="no"?>
<!DOCTYPE svg PUBLIC "-//W3C//DTD SVG 20010904//EN"
 "http://www.w3.org/TR/2001/REC-SVG-20010904/DTD/svg10.dtd">
<svg version="1.0" xmlns="http://www.w3.org/2000/svg"
 width="430.000000pt" height="292.000000pt" viewBox="0 0 430.000000 292.000000"
 preserveAspectRatio="xMidYMid meet">

<g transform="translate(0.000000,292.000000) scale(0.100000,-0.100000)"
fill="#000000" stroke="none">
<path d="M1420 2650 l0 -110 28 1 c16 1 20 3 10 6 -16 4 -18 18 -18 103 0 85
2 99 18 103 10 3 6 5 -10 6 l-28 1 0 -110z"/>
<path d="M1688 2750 c21 -9 22 -15 22 -104 0 -90 -1 -95 -22 -99 -17 -3 -14
-5 10 -6 l32 -1 0 110 0 110 -32 -1 c-30 0 -31 -1 -10 -9z"/>
<path d="M1531 2666 c-17 -41 -31 -79 -31 -85 0 -21 20 -10 26 14 5 21 12 25
43 25 31 0 40 -5 49 -25 14 -31 36 -34 26 -3 -16 50 -64 148 -73 148 -5 0 -23
-33 -40 -74z m63 -14 c5 -8 -2 -12 -19 -12 -23 0 -25 3 -20 23 19 64 18 64 25
31 4 -17 10 -36 14 -42z"/>
<path d="M1288 2723 c15 -6 17 -144 1 -160 -8 -8 -3 -10 18 -10 l28 2 -4 79
c-2 58 0 81 10 87 9 6 0 8 -26 8 -22 0 -34 -3 -27 -6z"/>
<path d="M2145 2703 c-71 -37 -135 -126 -135 -189 l0 -24 -710 0 -710 0 0
-660 0 -660 -225 0 c-143 0 -225 -4 -225 -10 0 -6 33 -10 80 -10 56 0 80 -4
80 -12 0 -9 3 -9 12 0 16 16 68 15 68 -1 0 -13 -24 -52 -47 -75 -7 -7 -13 -19
-13 -25 0 -19 48 38 64 77 12 30 20 36 45 36 25 0 28 -3 25 -22 l-5 -23 17 22
c11 16 27 23 51 23 31 0 33 -2 23 -21 -17 -30 -6 -34 14 -4 9 14 20 25 25 25
5 0 9 -78 10 -174 l1 -175 -27 -3 -28 -3 -3 -317 -2 -316 26 -31 c32 -38 53
-39 87 -3 l27 28 -2 320 -3 319 -27 3 -28 3 0 136 c0 121 2 139 22 174 18 33
27 39 55 39 18 0 33 -2 33 -4 0 -3 -9 -21 -21 -40 -12 -20 -17 -36 -12 -36 5
0 19 18 32 40 18 33 28 40 52 40 32 0 32 -1 -4 -53 -10 -16 -17 -30 -14 -33 3
-3 19 15 37 40 25 37 37 46 60 46 36 0 37 -5 5 -52 -14 -20 -25 -40 -25 -44 0
-14 31 20 52 57 18 33 27 39 55 39 33 0 33 0 19 -27 -8 -16 -24 -39 -35 -52
-12 -13 -21 -29 -21 -35 0 -15 57 53 72 87 10 21 20 27 45 27 18 0 33 -4 33
-8 0 -5 -13 -29 -30 -53 -16 -24 -30 -48 -30 -54 0 -18 49 49 60 82 l11 32 74
0 75 0 -15 -35 c-8 -19 -21 -42 -30 -51 -9 -8 -13 -18 -10 -21 6 -7 32 28 55
73 12 24 22 31 52 33 l37 3 -20 -40 c-10 -22 -23 -43 -29 -46 -12 -7 -13 -25
-2 -25 5 0 21 25 37 55 25 50 30 55 61 55 19 0 34 -2 34 -4 0 -1 -11 -25 -25
-51 -36 -67 -25 -67 16 0 27 46 38 55 61 55 15 0 28 -2 28 -4 0 -1 -11 -25
-25 -51 -36 -67 -25 -67 16 0 30 49 37 55 67 55 l34 0 -26 -44 c-44 -75 -23
-69 23 7 19 31 28 37 57 37 l35 0 -31 -46 c-18 -25 -30 -48 -27 -51 3 -3 21
18 39 46 26 41 39 51 61 51 27 0 27 0 12 -29 -8 -16 -22 -36 -31 -45 -8 -9
-14 -21 -12 -27 2 -6 21 14 43 45 34 49 42 56 72 56 38 0 37 -5 -11 -69 -14
-19 -24 -37 -21 -39 6 -7 41 37 60 76 13 27 21 32 50 32 19 0 35 -4 35 -8 0
-5 -13 -28 -30 -50 -36 -51 -39 -64 -5 -32 13 12 29 38 35 56 10 30 16 34 46
34 32 0 35 -2 29 -22 l-6 -23 17 22 c11 15 27 23 46 23 26 0 29 -3 23 -22 l-6
-23 19 23 c13 16 26 23 45 20 l26 -3 -24 -50 c-33 -68 -24 -68 14 0 27 47 35
55 61 55 35 0 37 -7 10 -62 -23 -47 -23 -48 -12 -48 5 0 13 12 19 28 9 21 11
-6 12 -130 l1 -156 31 -31 c17 -17 33 -31 37 -31 3 0 19 12 34 27 28 27 28 27
28 157 l0 131 41 58 41 57 69 0 70 0 -16 -29 c-8 -16 -22 -36 -31 -45 -8 -9
-14 -21 -12 -27 4 -12 68 73 68 90 0 6 16 11 35 11 21 0 35 -5 35 -12 0 -9 3
-9 12 0 19 19 68 15 68 -5 1 -17 1 -17 14 -1 11 16 76 27 76 14 0 -3 -11 -26
-25 -52 -36 -67 -24 -66 14 1 27 47 35 55 61 55 l29 0 -16 -37 c-8 -21 -20
-44 -25 -51 -6 -7 -9 -15 -6 -18 3 -3 20 20 37 51 29 50 34 55 66 55 l35 0
-31 -55 c-17 -30 -26 -55 -20 -55 6 0 11 4 11 9 0 6 14 30 31 55 24 37 36 46
60 46 l29 0 -31 -55 c-17 -30 -26 -55 -20 -55 6 0 11 4 11 9 0 6 14 30 31 55
26 40 35 46 65 46 l35 0 -31 -44 c-16 -25 -30 -48 -30 -52 0 -14 31 20 52 57
18 33 27 39 55 39 l34 0 -31 -44 c-16 -25 -30 -48 -30 -52 0 -14 31 20 52 57
18 33 27 39 55 39 18 0 33 -3 33 -6 0 -3 -13 -25 -30 -49 -16 -24 -30 -47 -30
-52 0 -15 60 62 66 84 5 18 13 23 40 23 19 0 34 -5 34 -11 0 -15 -33 -69 -42
-69 -4 0 -8 -8 -8 -17 0 -15 4 -13 20 7 12 14 27 40 35 58 12 27 19 32 49 32
34 0 35 -1 26 -26 -6 -15 -19 -38 -30 -52 -11 -14 -18 -27 -15 -30 6 -7 33 29
55 73 10 21 24 31 43 33 26 3 28 1 22 -20 -4 -13 -15 -35 -26 -50 -11 -16 -17
-28 -14 -28 11 0 30 25 47 62 15 33 22 38 52 38 l34 0 -15 -40 c-9 -22 -20
-40 -25 -40 -4 0 -8 -4 -8 -10 0 -23 18 -7 35 30 23 50 37 62 68 58 l25 -3
-24 -49 c-33 -68 -23 -69 16 -2 29 51 35 56 66 56 l34 0 -31 -55 c-17 -31 -29
-58 -26 -61 3 -3 12 9 21 28 9 18 27 47 41 63 l26 30 -4 -45 c-2 -25 -7 -54
-12 -64 -6 -14 -5 -17 3 -12 9 5 12 -27 13 -126 l0 -133 35 -29 35 -29 35 34
34 34 1 183 1 182 25 0 24 0 -21 -30 c-12 -17 -20 -36 -18 -42 3 -7 15 7 28
30 20 36 28 42 57 42 18 0 33 -2 33 -4 0 -3 -9 -21 -21 -40 -12 -20 -17 -36
-12 -36 5 0 19 18 32 40 16 30 29 40 47 40 13 0 24 5 24 10 0 6 -40 10 -99 10
l-100 0 -3 48 c-3 43 -5 47 -30 50 l-28 3 0 610 0 609 -703 0 -704 0 -12 54
c-14 62 -76 137 -135 161 -48 20 -172 19 -211 -2z m211 -40 c125 -63 153 -230
57 -334 -46 -50 -80 -63 -164 -63 -81 0 -114 15 -166 74 -32 35 -56 120 -48
167 10 53 62 128 109 154 77 44 128 44 212 2z m-338 -259 c55 -235 412 -232
472 4 l14 52 693 0 693 0 0 -594 0 -595 -27 -3 c-26 -3 -28 -7 -31 -50 l-3
-48 -750 0 -749 0 0 50 c0 47 -2 50 -25 50 l-25 0 0 265 0 265 -275 0 -274 0
-11 41 c-34 126 -182 222 -292 190 -99 -29 -164 -93 -198 -196 l-12 -35 -304
0 -304 0 0 330 0 330 698 0 697 0 13 -56z m-471 -420 c61 -20 89 -46 119 -110
33 -69 32 -127 -4 -195 -88 -167 -349 -135 -392 47 -27 111 23 215 121 255 55
23 95 23 156 3z m-316 -256 c6 -23 19 -53 30 -66 10 -14 19 -30 19 -37 0 -16
92 -74 138 -87 120 -33 266 58 301 190 l12 42 259 0 260 0 0 -249 0 -250 -22
-3 c-20 -3 -23 -10 -26 -51 l-3 -47 -792 2 -792 3 -3 298 -2 297 304 0 305 0
12 -42z m1079 -713 l0 -225 -25 -16 c-20 -13 -28 -14 -40 -4 -13 10 -15 50
-15 241 l0 229 40 0 40 0 0 -225z m1630 2 c0 -208 -1 -225 -19 -241 -15 -14
-24 -15 -40 -6 -20 10 -21 18 -21 240 l0 230 40 0 40 0 0 -223z m-3300 129 c0
-2 -7 -9 -15 -16 -12 -10 -15 -10 -15 4 0 9 7 16 15 16 8 0 15 -2 15 -4z
m1729 -31 c-30 -50 -39 -52 -39 -6 0 39 2 41 30 41 l29 0 -20 -35z m-1729
-648 c0 -295 -1 -303 -21 -320 -20 -17 -22 -18 -40 -1 -18 16 -19 35 -19 321
l0 303 40 0 40 0 0 -303z"/>
<path d="M2163 2570 c-21 -8 -53 -57 -53 -80 0 -23 30 -7 50 27 l22 38 29 -35
c16 -19 32 -49 35 -67 6 -31 53 -83 75 -83 5 0 23 13 39 28 35 34 44 74 18 80
-11 2 -18 -3 -18 -11 0 -24 -34 -59 -51 -52 -16 6 -59 85 -59 108 0 36 -49 62
-87 47z"/>
<path d="M2343 1453 c-16 -6 -18 -159 -3 -168 6 -4 10 10 10 34 0 39 2 41 29
41 55 0 81 16 81 50 0 24 -6 33 -26 40 -27 10 -70 12 -91 3z m91 -25 c17 -27
-5 -52 -48 -56 -35 -3 -36 -2 -36 31 0 18 3 37 7 41 13 13 66 1 77 -16z"/>
<path d="M1400 1866 c0 -8 6 -30 14 -48 7 -18 20 -53 28 -78 18 -55 48 -63 59
-15 3 17 16 54 28 83 23 57 25 72 13 72 -11 0 -42 -65 -42 -88 -1 -9 -7 -28
-14 -41 -13 -23 -13 -22 -34 30 -11 30 -22 63 -24 73 -4 23 -28 34 -28 12z"/>
<path d="M578 2662 c-16 -9 -28 -19 -28 -22 0 -3 14 -13 30 -22 25 -14 30 -15
30 -3 0 13 44 15 295 15 190 0 295 4 295 10 0 6 -105 10 -294 10 -249 0 -295
2 -298 14 -3 13 -7 12 -30 -2z"/>
<path d="M3971 1441 c-49 -49 -11 -151 56 -151 33 0 73 25 73 46 0 23 -19 16
-32 -11 -9 -21 -18 -25 -42 -23 -42 4 -62 45 -50 102 8 39 11 41 47 44 32 3
39 0 44 -17 5 -19 33 -31 33 -13 -1 21 -22 35 -63 39 -36 4 -49 1 -66 -16z"/>
<path d="M2442 1095 c-18 -25 -32 -50 -32 -56 0 -13 42 37 59 69 22 41 6 33
-27 -13z"/>
<path d="M1096 1090 c-14 -22 -26 -43 -26 -47 0 -10 35 30 49 56 22 39 5 33
-23 -9z"/>
<path d="M280 1100 c-7 -14 -16 -27 -19 -30 -17 -14 -32 -40 -23 -40 14 0 64
69 59 83 -2 7 -9 1 -17 -13z"/>
<path d="M2604 1092 c-30 -41 -36 -52 -27 -52 10 0 57 69 51 75 -2 3 -13 -8
-24 -23z"/>
<path d="M2681 1080 c-12 -17 -21 -33 -19 -36 8 -7 50 44 46 56 -2 6 -14 -3
-27 -20z"/>
<path d="M422 1073 c-31 -38 -28 -54 4 -20 14 15 24 32 22 38 -2 6 -13 -2 -26
-18z"/>
<path d="M1927 1077 c-23 -36 -21 -45 4 -19 11 13 19 28 17 34 -2 6 -12 -1
-21 -15z"/>
<path d="M2007 1077 c-23 -36 -21 -45 4 -19 11 13 19 28 17 34 -2 6 -12 -1
-21 -15z"/>
<path d="M504 1066 c-9 -15 -14 -29 -12 -32 3 -2 13 7 22 22 10 14 15 28 13
31 -3 2 -13 -7 -23 -21z"/>
<path d="M666 1051 c-4 -7 -5 -15 -2 -18 9 -9 19 4 14 18 -4 11 -6 11 -12 0z"/>
<path d="M4047 1053 c-4 -3 -7 -11 -7 -17 0 -6 5 -5 12 2 6 6 9 14 7 17 -3 3
-9 2 -12 -2z"/>
<path d="M422 918 l3 -83 60 -1 c47 -1 50 0 13 3 -53 5 -56 9 -54 93 l1 55 45
6 45 6 -58 1 -58 2 3 -82z"/>
</g>
</svg>
