<svg xmlns="http://www.w3.org/2000/svg" width="573.3" height="389.3" version="1.0" viewBox="0 0 430 292">
  <path d="M142 27v11h3c1 0 2 0 1-1-2 0-2-2-2-10 0-9 0-10 2-10 1-1 0-1-1-1h-3v11zM169 17c2 1 2 2 2 10 0 9 0 10-2 10-2 1-2 1 1 1h3V16h-3c-3 0-3 0-1 1zM153 25l-3 9c0 2 2 1 3-2 0-2 1-2 4-2s4 0 5 2c1 4 3 4 2 1-1-5-6-15-7-15l-4 7zm6 2c1 1 0 1-1 1-3 0-3 0-2-2 1-7 1-7 2-3l1 4zM129 20c1 0 2 14 0 16l2 1 3-1-1-7 1-9c1-1 0-1-2-1-3 0-4 0-3 1z"/>
  <path d="M215 22c-8 3-14 12-14 19v2H59v132H37l-23 1 8 1 8 1h8c0 2-2 5-5 8l-1 2c0 2 5-4 6-7 2-3 2-4 5-4 2 0 3 0 2 2v2l2-2c1-1 2-2 5-2s3 0 2 2c-2 3-1 3 1 0l3-2 1 17v18h-3l-3 1v63l3 3c3 4 5 4 8 0l3-3v-32l-1-31-2-1h-3v-14c0-12 0-14 2-17s3-4 6-4h3l-2 4-1 4 3-4c2-3 3-4 5-4 3 0 3 0 0 5l-2 4 4-4c3-4 4-5 6-5 4 0 4 1 1 5l-3 5c0 1 3-2 5-6 2-3 3-4 6-4s3 0 2 3l-4 5-2 3c0 2 6-5 7-8 1-2 2-3 5-3l3 1-3 5-3 6c0 1 5-5 6-9l1-3h15l-1 4-3 5-1 2 5-7c1-3 2-4 5-4h4l-2 4-3 5v2l3-5c3-5 4-6 7-6h3l-2 6c-4 6-3 6 1 0 3-5 4-6 6-6h3l-2 6c-4 6-3 6 1 0 3-5 4-6 7-6h3l-2 4c-5 8-3 7 2 0 2-3 3-4 6-4h3l-3 5-3 5 4-5c3-4 4-5 6-5 3 0 3 0 2 3l-4 4-1 3 5-4c3-5 4-6 7-6 4 0 3 1-1 7l-2 4 6-8c1-2 2-3 5-3l3 1-3 5c-4 5-4 6 0 3l3-6c1-3 2-3 5-3s3 0 3 2l-1 3 2-3 4-2c3 0 3 0 3 2l-1 3 2-3 4-2 3 1-2 5c-4 6-3 6 1 0 3-5 3-6 6-6 4 0 4 1 1 6l-1 5 2-3c1-2 1 1 1 13v16l3 3 4 3 3-3c3-2 3-2 3-15v-13l4-6 4-6h14l-1 3-4 4-1 3c1 1 7-7 7-9l4-1 3 1h1c2-2 7-1 7 1h1c2-2 8-3 8-2l-2 6c-4 6-3 6 1 0 3-5 3-6 6-6h3l-2 4-2 5-1 2 4-5c3-5 3-6 6-6h4l-3 6-2 5 1-1 3-5c3-4 4-5 6-5h3l-3 6-2 5 1-1 3-5c3-4 4-5 7-5h3l-3 4-3 6c0 1 3-2 5-6 2-3 3-4 6-4h3l-3 4-3 6c0 1 3-2 5-6 2-3 3-4 6-4l3 1-3 5-3 5c0 1 6-6 7-9 0-1 1-2 4-2l3 1-4 7-1 2 2-1 3-6c2-2 2-3 5-3 4 0 4 0 3 3l-3 5-2 3c1 1 4-3 6-7 1-3 2-4 4-4 3 0 3 0 2 2l-2 5-2 3c2 0 3-2 5-6 2-3 2-4 5-4h4l-2 4-2 4-1 1c0 2 2 1 3-3 3-5 4-6 7-6l3 1-3 4c-3 7-2 7 2 1 3-5 3-6 7-6h3l-3 6-3 6 2-3 4-6 3-3v4l-2 6 1 2c1-1 1 2 1 12v14l4 2 3 3 4-3 3-3v-37h5l-2 3-2 4c0 1 2 0 3-3 2-3 3-4 6-4h3l-2 4-1 4 3-4c1-3 3-4 5-4l2-1-10-1h-10v-5c-1-4-1-4-3-5h-3V43H250l-1-5c-1-7-8-14-13-16s-18-2-22 0zm21 4c12 6 15 23 5 33-4 5-8 6-16 6s-12-1-17-7c-3-4-5-12-5-17 1-5 7-13 11-15 8-5 13-5 22 0zm-34 26c5 23 41 23 47-1l1-5h139v119h-3c-2 1-2 1-3 5v5H233v-5c0-5 0-5-3-5h-2v-53h-55l-1-4c-3-13-18-22-29-19-10 3-17 9-20 20l-1 3H61V46h139l2 6zm-47 42c6 2 9 4 12 11 3 6 3 12-1 19-9 17-35 14-39-5-3-11 2-21 12-25 6-2 10-2 16 0zm-32 25l3 7 2 3c0 2 9 8 14 9 12 3 26-6 30-19l1-4h52v50h-2c-2 0-2 1-3 5v5h-79l-80-1v-59h61l1 4zm108 71v23l-2 2h-4c-2-1-2-5-2-24v-23h8v23zm163 0c0 21 0 23-2 24-1 2-2 2-4 1s-2-2-2-24v-23h8v22zM64 177l-1 2h-2l2-2h1zm173 4c-3 5-4 5-4 0 0-4 0-4 3-4h3l-2 4zM64 245c0 30 0 31-2 32-2 2-2 2-4 0-2-1-2-3-2-32v-30h8v30z"/>
  <path d="M216 35c-2 1-5 6-5 8s3 1 5-3l2-4 3 4 4 7c0 3 5 8 7 8l4-3c4-3 4-7 2-8l-2 1c0 3-3 6-5 6-2-1-6-9-6-11 0-4-5-6-9-5zM234 147v16c1 1 1 0 1-3 0-4 0-4 3-4 5 0 8-2 8-5 0-2-1-3-3-4h-9zm9 2c2 3 0 5-4 6-4 0-4 0-4-3l1-4c1-2 6-1 7 1zM140 105l1 5 3 8c2 5 5 6 6 1l3-8c2-6 2-7 1-7s-4 6-4 9l-1 4c-2 2-2 2-4-3l-2-7c-1-3-3-4-3-2zM58 26l-3 2 3 2 3 1c0-2 4-2 30-2l29-1-29-1-30-1c-1-2-1-2-3 0zM397 148c-5 5-1 15 6 15 3 0 7-2 7-5 0-2-2-1-3 2-1 2-2 2-4 2-5-1-7-5-5-10 0-4 1-4 4-5 4 0 4 0 5 2 0 2 3 3 3 1s-2-3-6-4c-4 0-5 0-7 2zM244 183l-3 5 6-7c2-4 1-3-3 1zM110 183l-3 5c0 1 4-3 5-6 2-4 0-3-2 1zM28 182l-2 3c-2 1-3 4-2 4l6-8-2 1zM260 183c-3 4-3 5-2 5l5-7-3 2zM268 184l-2 4 5-6c0-1-2 0-3 2zM42 185c-3 3-3 5 1 2l2-4-3 2zM193 184c-3 4-2 5 0 2l2-3-2 1zM201 184c-3 4-2 5 0 2l2-3-2 1zM50 185l-1 4c1 0 2-1 2-3l2-3-3 2zM67 187l-1 2c1 1 2-1 2-2h-1zM405 187l-1 1h1l1-2-1 1zM42 200l1 8 6 1c4 0 5 0 1-1-6 0-6-1-6-9v-6h5l5-1H42v8z"/>
</svg>