<svg xmlns="http://www.w3.org/2000/svg" width="1024" height="617.3" version="1.0" viewBox="0 0 768 463">
  <path d="M304 13c-2 2-2 3 1 1 1-1 1 0 1 7l1 8 1-9-1-10-3 3zM399 44c-4 2-8 8-9 13l-1 3h-34l-3-3c-4-5-12-2-12 5 0 3 3 6 7 6 3 0 7-3 7-5l17-1h18l1 4c1 6 6 12 11 14 12 5 26-1 29-14l1-4h252v120h-7v16H493v-17h-8v-67h-27l-27-1-1-3c-1-4-2-6-7-10-4-4-9-6-16-5-8 1-15 7-17 16l-1 3H278v67h-7v16l-93 1H85v-16l-5-1h-4v-60l1-60h201l3 3c3 4 8 4 11 1s3-7 0-10c-4-3-7-3-10 1l-3 3H75l-1 61v61h-6l-1 9v8H34l-34 1 7 1 7 1-7 7-6 8 8-8 8-8h25l-9 9-8 8 10-8 9-9h11l12 1-8 9-7 8 8-7 7-7v37l4 6c5 10 5 10 10 1l4-8v-28l6-6 7-6h25l-9 9-9 9 10-9 9-9h26l-9 9-9 9 9-9 10-9h12l12 1-8 9-8 9 9-10 10-9h12l12 1-8 8-8 8 10-8 9-9h25l-9 9-8 9 10-9 9-9h25l-9 9-8 9 10-9 9-9h12v6c0 6 0 7-2 9-3 3-3 4 0 2 2-2 2-2 2 11v13l4 8 5 7 4-7 4-7v-42h23l-9 9-9 9 9-9 10-9h12l12 1-8 9-8 9 9-10 10-9h12l12 1-6 6a184 184 0 00-1 2l10-9h25l-9 9-8 9 10-9 9-9h25l-9 9-8 9 10-9 9-9h25l-9 9-8 9 10-9 9-9h25l-9 9-9 9 9-9 11-9 1 20v20l4 8 5 8 5-7 4-8v-35l3-3 4-3h12l12 1-8 9-8 9 9-10 10-9h25l-9 9-8 9 10-9 9-9h25l-9 9-8 9 10-9 9-9h25l-9 9-8 9 10-9 9-9h25l-9 9-9 9 9-9 10-9h26l-9 9-9 10 9-10 10-9h15v5c0 5 0 6-4 9l-4 5 4-4 4-3v29l4 8 5 8 5-8 4-8v-41h19l-9 8-8 9 10-8 9-9h25l-9 9-8 9 10-9 9-9h25l-9 9-8 9c1 0 18-17 18-19l-37-1h-37v-16h-9V60H431l-1-4c-1-5-7-12-12-14s-14-1-19 2zm20 1c3 2 6 4 7 7 9 16-7 34-23 26-14-6-15-24-3-32 6-4 13-4 19-1zM291 58c2 4-1 8-6 6-4-1-4-7 0-8 3-1 5 0 6 2zm59 0c3 2 3 4 0 6-3 3-7 2-8-2 0-2 0-3 2-4 3-3 4-3 6 0zm67 40c3 1 8 6 10 9 2 4 2 13 0 16-7 13-23 14-31 4-10-12-2-30 14-30l7 1zm-27 22c2 9 11 16 20 16s18-7 20-16l1-4h51v65h-2c-4 0-5 2-5 10v7h-93l-93-1-1-8v-8h-8v-65h109l1 4zM83 211v27l-3 7-4 7-4-7-3-6v-27l1-28 6-1h6l1 28zm203 0v29l-3 6-3 6-4-6-3-6v-57h13v28zm205 1v28l-3 6-4 6-3-6-3-5v-57h13v28zm201 0v27l-3 7-4 7-4-7-3-6v-27l1-28 6-1h7v28zM95 200l-5 5-5 5v-10h10zm403 0l-3 3-2 2v-2c0-3 0-3 2-3h3z"/>
  <path d="M407 61l-2 7 2-1c0-3 6-3 6-1l1 2 1-1-3-7-2-6-3 7zm4 0c1 1 0 2-1 2-2 0-2-1-2-2l1-2c0-2 2 0 2 2zM405 109l5 13 5-13c0-3-2 0-3 4l-2 5-2-5c-1-4-3-7-3-4zM304 54c-3 1-6 6-4 7 1 1 1 0 2-1 0-4 3-5 7-5s6 2 6 6c2 7 10 10 15 6 3-2 4-6 3-7l-2 2c-1 3-3 5-6 5-4 0-6-3-8-8l-4-6h-9zM75 291l1 27 1-27-1-28-1 28zM279 291a653 653 0 000 0zM484 291a653 653 0 000 0zM684 292a608 608 0 000 0zM176 293l2 1 2 2-2 1c-4 0-6 3-3 5l3 1c2 0 3-1 3-5v-5h-5zm3 7l-2 1-2-1 2-1 2 1zM381 293l1 1c3 1 3 2 0 3-4 0-6 3-4 5l4 1c2 0 3-1 3-5v-5h-5zm3 7l-3 1-2-1 3-1 2 1zM583 293l2 1 2 2-2 1-4 2c-2 2 0 4 3 4s3 0 4-4v-6c-1-1-5-2-5 0zm3 7l-2 1-2-1 2-1 2 1zM82 307c-4 2-4 2-2 3a597 597 0 0198-1 562 562 0 0197 1c2-1 2-1-2-3h-6a3569 3569 0 01-186 0zM286 307c-5 2-4 2 1 4a679 679 0 0195-2 574 574 0 0198 1c2-1 2-1-2-3h-6a3609 3609 0 01-186 0zM490 307c-5 1-4 2 2 4a673 673 0 0193-2 594 594 0 0193 2c6-2 6-3 0-4h-5-177-6zM6 346c0 5 0 6 2 6l1-3v-3l3 3 4 3-1-2c-3-4-3-5-1-8 2-2 2-3 1-3l-4 3-2 2v-2l-1-3c-2 0-2 1-2 7zM20 343v8h7l-2-1-3-1c-1-1 0-1 2-1 4 0 4-1 2-4-1-2-4-3-6-1zm5 2l-2 1c-1 0-2 0-1-1l2-1 1 1zM29 343l1 6c2 4 2 4 0 5s-1 2 1 2c2-1 5-6 6-12 1-3-1-2-2 1l-2 3-1-3c-1-3-3-4-3-2zM8 375v1c2-1 2 0 2 5 0 3 0 5 1 4l1-6c0-6-1-8-4-4zM50 375c-3 2-2 7 0 9s7 3 8 1l-3-1c-3 0-5-2-5-6 0-2 1-3 4-4l4-1h-4l-4 2zM108 376v2l1 4c0 3 1 4 3 4v-8-2c-2-2-2-2-4 0zM60 380c0 4 2 6 6 6 2-1 3-1 3-5l-1-4c-1-1-1 0-1 2 0 4-2 7-4 5l-1-4-1-4-1 4zM71 377l1 8c1 1 1 0 1-2 0-3 1-4 2-5l2-2h-2l-4 1zM79 381l1 5 1-3c0-3 1-4 2-5 2-1 1-2-1-2-3 0-3 1-3 5zM87 377v8h7l-1-1c-2 1-5 0-5-2l3-1c2 0 3 0 3-2 0-3-4-4-7-2zm6 2l-2 1-3-1 2-1 3 1zM97 382v5l1-4c0-4 1-5 3-5s2 0 2 4l1 4c2 0 1-8 0-9l-4-1c-3 0-3 1-3 6zM122 378c-1 1-1 1 1 3s2 5 0 4h-1c0 2 4 1 5-1l-2-4-1-2 2-1c0-2-3-1-4 1zM130 377c-2 2-1 7 1 8 3 2 7 0 7-4l-1-4h-7zm6 4l-1 3c-3 2-6-1-4-5 1-2 4-1 5 2zM141 380c0 4 1 6 5 6 3-1 3-1 3-6v-4l-1 3c-1 7-5 8-5 2l-1-4c-1-1-1 0-1 3zM154 377c-2 0-2 1-2 5l1 4 1-4 2-4 1-1h-3zM161 378l-2 3c0 2 3 5 6 5l-1-1c-3-2-3-6 0-7l2-1c0-2-4-1-5 1zM169 378c-1 3-1 5 1 6 1 2 6 3 6 1l-2-1c-1 1-4-1-4-2l4-1c2 0 3 0 2-2-1-3-5-4-7-1zm6 1l-2 1-3-1 2-1 3 1zM8 413c-3 6-3 9 0 5l4-2 3 2c3 4 3 1 0-5l-3-6-4 6zm6 1l-2 1c-3 0-3 0-2-3l1-3 2 2 1 3zM50 413c-3 6-3 9 0 5l4-2 3 2c3 4 3 1 0-5l-4-6-3 6zm6 1l-2 1c-3 0-3 0-2-3l1-3 2 2 1 3zM106 410v2l1 3c0 3 3 6 4 4l-1-1v-6-2c-2-2-2-2-4-1zM62 415l1 5 1-4 1-4c2-1 3 0 3 4 0 3 0 4 1 3l1-3 1-4c2-1 3 0 3 4l1 4c2 0 1-8 0-9H62v4zM79 415l1 5 1-4 1-4c2-1 3 0 3 4 0 3 0 4 1 3l1-3 1-4c2-1 3 0 3 4l1 4c2 0 1-8 0-9H79v4zM96 412l-1 3c0 2 3 5 6 5s2-2-1-2c-4-1-4-3 0-3l4-1c0-2-2-4-5-4l-3 2zm6 1l-3 1c-2 0-2 0-1-1 1-2 4-2 4 0zM114 411l-1 4c0 3 4 6 7 4l-1-1c-4-1-5-3-1-3 2 0 3 0 3-2 0-3-4-4-7-2zm5 1c1 2 1 2-1 2-3 0-4-1-2-2h3zM124 415l1 5 1-3c0-3 1-4 2-5 2-1 1-2-1-2-3 0-3 1-3 5zM74 447l1 8 1-8-1-8-1 8zM5 441l3 8 4 6c1 0 7-14 6-15l-5 10-1 1c0 1-2-1-3-5l-3-6-1 1zM47 441l3 8 4 6c1 0 7-14 6-15l-5 10-1 1c0 1-2-1-3-5l-3-6-1 1zM81 443c-2 2-2 2-1 3l1 3c0 4 2 6 4 6v-1l-2-4 2-5v-1l-2-1c0-2-1-2-2 0zM119 443c-2 2-2 2 0 3l1 5c0 3 1 4 3 4v-2c-2-2-3-7 0-7l1-1-1-1-2-1h-2zM63 446c-3 2-2 5 0 7 3 3 6 2 8-1v-6c-2-2-6-3-8 0zm5 1c2 2 2 3 0 5-2 3-5 1-5-2 0-2 2-5 4-5l1 2zM88 445l1 9c1 1 1 0 1-2 0-4 2-7 4-6l1 5c0 5 2 5 2 0 0-4 1-5 3-5s2 0 2 4l1 5v-10H88zM108 445c-2 2-1 8 1 9h6l-1-1c-2 1-5-1-5-2l4-1c2 0 3 0 3-2s-2-4-4-4l-4 1zm6 3l-2 1c-3 0-4-3-2-3 2-1 4 0 4 2zM128 446c-2 2-2 5 0 7s6 3 7 1l-2-1c-2 1-5-1-5-2l4-1c4 0 4 0 3-2-1-4-5-5-7-2zm5 1v2h-4v-2c2-2 2-2 4 0zM139 450l1 5 1-5 2-4c2-1 1-2-1-2-3 0-3 1-3 6z"/>
</svg>